<svg id="visual" viewBox="0 0 900 600" width="900" height="600" xmlns="http://www.w3.org/2000/svg" xmlns:xlink="http://www.w3.org/1999/xlink" version="1.1"><rect x="0" y="0" width="900" height="600" fill="#001220"></rect><path d="M0 354L21.5 362.3C43 370.7 86 387.3 128.8 396.7C171.7 406 214.3 408 257.2 401C300 394 343 378 385.8 383.7C428.7 389.3 471.3 416.7 514.2 417.3C557 418 600 392 642.8 387.8C685.7 383.7 728.3 401.3 771.2 414.3C814 427.3 857 435.7 878.5 439.8L900 444L900 601L878.5 601C857 601 814 601 771.2 601C728.3 601 685.7 601 642.8 601C600 601 557 601 514.2 601C471.3 601 428.7 601 385.8 601C343 601 300 601 257.2 601C214.3 601 171.7 601 128.8 601C86 601 43 601 21.5 601L0 601Z" fill="#ffffff"></path><path d="M0 473L21.5 472.2C43 471.3 86 469.7 128.8 468.8C171.7 468 214.3 468 257.2 460C300 452 343 436 385.8 425.2C428.7 414.3 471.3 408.7 514.2 416.7C557 424.7 600 446.3 642.8 446.3C685.7 446.3 728.3 424.7 771.2 412.5C814 400.3 857 397.7 878.5 396.3L900 395L900 601L878.5 601C857 601 814 601 771.2 601C728.3 601 685.7 601 642.8 601C600 601 557 601 514.2 601C471.3 601 428.7 601 385.8 601C343 601 300 601 257.2 601C214.3 601 171.7 601 128.8 601C86 601 43 601 21.5 601L0 601Z" fill="#dcd4fd"></path><path d="M0 506L21.5 504.2C43 502.3 86 498.7 128.8 499.5C171.7 500.3 214.3 505.7 257.2 504.5C300 503.3 343 495.7 385.8 483.8C428.7 472 471.3 456 514.2 452.3C557 448.7 600 457.3 642.8 464.5C685.7 471.7 728.3 477.3 771.2 477C814 476.7 857 470.3 878.5 467.2L900 464L900 601L878.5 601C857 601 814 601 771.2 601C728.3 601 685.7 601 642.8 601C600 601 557 601 514.2 601C471.3 601 428.7 601 385.8 601C343 601 300 601 257.2 601C214.3 601 171.7 601 128.8 601C86 601 43 601 21.5 601L0 601Z" fill="#b7aafa"></path><path d="M0 529L21.5 522.5C43 516 86 503 128.8 496.2C171.7 489.3 214.3 488.7 257.2 496.5C300 504.3 343 520.7 385.8 525.7C428.7 530.7 471.3 524.3 514.2 523.8C557 523.3 600 528.7 642.8 531.3C685.7 534 728.3 534 771.2 530.8C814 527.7 857 521.3 878.5 518.2L900 515L900 601L878.5 601C857 601 814 601 771.2 601C728.3 601 685.7 601 642.8 601C600 601 557 601 514.2 601C471.3 601 428.7 601 385.8 601C343 601 300 601 257.2 601C214.3 601 171.7 601 128.8 601C86 601 43 601 21.5 601L0 601Z" fill="#8c82f6"></path><path d="M0 568L21.5 562.3C43 556.7 86 545.3 128.8 542.2C171.7 539 214.3 544 257.2 542.5C300 541 343 533 385.8 529C428.7 525 471.3 525 514.2 527.8C557 530.7 600 536.3 642.8 540.7C685.7 545 728.3 548 771.2 552C814 556 857 561 878.5 563.5L900 566L900 601L878.5 601C857 601 814 601 771.2 601C728.3 601 685.7 601 642.8 601C600 601 557 601 514.2 601C471.3 601 428.7 601 385.8 601C343 601 300 601 257.2 601C214.3 601 171.7 601 128.8 601C86 601 43 601 21.5 601L0 601Z" fill="#535bf2"></path></svg>